<?xml version="1.0" encoding="utf-8"?>
<svg xmlns="http://www.w3.org/2000/svg" viewBox="0.747 0.5942 227.8 32.4868" width="227.8px" height="32.4868px" xmlns:bx="https://boxy-svg.com"><g id="object-3"><g><g transform="matrix(0.793167, 0, 0, 0.793167, -115.984222, -166.694595)" style="" id="object-0"><path style="stroke: rgb(0, 0, 0); stroke-width: 1;" d="M 147.171 223.061 H 204.852 A 0 0 0 0 1 204.852 223.061 V 245.37 A 1 1 0 0 1 203.852 246.37 H 149.171 A 2 2 0 0 1 147.171 244.37 V 223.061 A 0 0 0 0 1 147.171 223.061 Z" bx:shape="rect 147.171 223.061 57.681 23.309 0 0 0 0 0 0 0 1 1 0 2 2 2@b35590bf"/><path style="stroke-width: 1; stroke: rgb(0, 0, 0); fill: rgb(212, 212, 212);" d="M 149.171 213.933 H 202.852 A 2 2 0 0 1 204.852 215.933 V 222.349 A 0 0 0 0 1 204.852 222.349 H 147.171 A 0 0 0 0 1 147.171 222.349 V 215.933 A 2 2 0 0 1 149.171 213.933 Z" bx:shape="rect 147.171 213.933 57.681 8.416 0 2 2 0 2 2 0 0 0 0 0 0 2@11a17ce8"/><ellipse style="fill-rule: nonzero; fill: none; stroke: rgb(255, 255, 255); stroke-width: 2px; transform-box: fill-box; transform-origin: 50% 50%;" cx="374.348" cy="210.523" rx="12.217" ry="12.411" transform="matrix(0.999991, -0.004276, 0.004276, 0.999991, -198.335697, 19.628757)"/><ellipse style="fill: none; fill-rule: nonzero; stroke-width: 3; stroke: rgb(255, 255, 255);" cx="176.011" cy="230.152" rx="7.548" ry="7.548"/><ellipse style="fill-rule: nonzero; stroke: rgb(0, 0, 0); stroke-width: 3; fill: none;" cx="176.011" cy="230.152" rx="9.987" ry="10.265"/><ellipse style="stroke: rgb(0, 0, 0); fill: rgb(250, 0, 0);" cx="157.928" cy="222.427" rx="1.95" ry="1.95"/><path d="M 179.358 231.587 C 179.358 233.495 177.811 235.042 175.903 235.042 C 175.874 235.042 175.847 235.042 175.818 235.04 L 175.818 228.131 C 175.847 228.131 175.874 228.13 175.903 228.13 C 177.811 228.13 179.358 229.677 179.358 231.585 L 179.358 231.587 Z" style="fill: rgb(198, 198, 198); transform-box: fill-box; transform-origin: 50% 50%;" transform="matrix(0.707107, 0.707107, -0.707107, 0.707107, 0.000009, -0.000001)"/><g transform="matrix(1, 0, 0, 0.659356, -116.739746, 85.826065)" style=""><path style="stroke: rgb(0, 0, 0);" d="M 290.998 194.143 L 290.998 189.71 L 301.932 189.71 L 304.537 194.223 L 290.998 194.143 Z"/><path style="stroke: rgb(0, 0, 0); stroke-width: 1; transform-box: fill-box; transform-origin: 50% 50%;" d="M 281.293 189.79 L 281.293 194.223 L 292.227 194.223 L 294.832 189.71 L 281.293 189.79 Z" transform="matrix(-1, 0, 0, -1, 0, 0)"/></g><rect x="152.186" y="212.261" width="4.228" height="1.383" style="stroke: rgb(0, 0, 0); fill: rgb(255, 0, 0);"/><rect x="192.003" y="216.642" width="9.531" height="3.613" style="fill: rgb(216, 216, 216); stroke: rgb(0, 0, 0);"/></g><text style="fill: rgb(51, 51, 51); font-family: &quot;Courier New&quot;; font-size: 28px; font-weight: 700; white-space: pre;" x="54.672" y="25.081" id="object-1">COLIN</text><text style="fill: rgb(51, 51, 51); font-family: &quot;Courier New&quot;; font-size: 28px; font-weight: 700; white-space: pre; stroke-width: 1;" x="144.336" y="25.081" id="text-1">PHOTO</text></g></g></svg>